<svg width="1920" height="1080" viewBox="0 0 1920 1080" fill="none" xmlns="http://www.w3.org/2000/svg">
<mask id="mask0_1_12" style="mask-type:alpha" maskUnits="userSpaceOnUse" x="0" y="0" width="1920" height="1080">
<rect width="1920" height="1080" fill="#D9D9D9"/>
</mask>
<g mask="url(#mask0_1_12)">
<path d="M2570 502L-350.5 558L-288.5 1162.5L2570 1224V502Z" fill="#762EEB"/>
<path d="M125 905C-92.3971 1124.86 -344.5 267.5 -344.5 267.5L2391 -85C2391 -85 2722.61 978.207 2296 1005.5C2075.69 1019.6 2012.91 736.079 1792.5 748.5C1640.16 757.085 1591 955.5 1423 955.5C1255 955.5 1149.12 737.283 970 821C888.899 858.904 865.472 864.768 785.5 905C580.49 1008.14 402.049 555.445 231.5 709C166.761 767.288 186.25 843.057 125 905Z" fill="#270059"/>
<path d="M108.5 474C-27.2745 535.78 26.8127 709.638 -93 798.5C-388.939 1017.99 -288.5 -124.5 -288.5 -124.5H2379.5L2413 513.5C2413 513.5 2059.6 750.784 1865 647.5C1752.64 587.865 1779.15 434.774 1658 396C1454.9 331 1498.59 759.206 1289 798.5C1065.09 840.479 994.238 436.029 780 513.5C683.77 548.298 675.058 647.125 578.5 681C389.249 747.394 291.05 390.936 108.5 474Z" fill="#541CAF"/>
<path d="M203.5 122C108.5 55 -154.5 189 -154.5 189L-199 -454.5H2156V189C2156 189 1999.5 233.5 1859.5 233.5C1719.5 233.5 1753.5 122 1563 122C1372.5 122 1417.5 407 1322.5 401.5C1227.5 396 1289 233.5 1177 233.5C1065 233.5 1171.5 334.5 998 340C824.5 345.5 897 122 774 122C651 122 607 228.5 483.5 267.5C360 306.5 298.5 189 203.5 122Z" fill="#762EEB"/>
</g>
</svg>
